Stake Land 2011 HDRip Xvid AC3 UnKnOwN


:: NOTES ::


Encoded By .......:UnKnOwN 
Release Date ......... 2011
Runtime ..........:1:34 
Source ......... Cmac87
IMDb URL .........:http://www.imdb.com/title/tt1464580/ 
File Type ......... Single AVI
Language .........:English 
PS3 Compatible ....... I made sure it wasn't(:
File Size ........:1.28gb 
Genre ......... Horror


Video
ID: 0
Format: MPEG-4 Visual
Format profile: Advanced Simple@L5
Format settings, BVOP: Yes
Format settings, QPel: No
Format settings, GMC: No warppoints
Format settings, Matrix: Default (H.263)
Codec ID: XVID
Codec ID/Hint: XviD
Duration: 1h 34mn
Bit rate: 1 488 Kbps
Width: 720 pixels
Height: 304 pixels
Display aspect ratio: 2.35:1
Frame rate: 23.976 fps
Color space: YUV
Chroma subsampling: 4:2:0
Bit depth: 8 bits
Scan type: Progressive
Bits/(Pixel*Frame): 0.284
Stream size: 1 006 MiB (76%)
Writing library: XviD 1.2.1 (UTC 2008-12-04)


Audio
ID: 1
Format: AC-3
Format/Info: Audio Coding 3
Mode extension: CM (complete main)
Codec ID: 2000
Duration: 1h 38mn
Bit rate mode: Constant
Bit rate: 448 Kbps
Channel(s): 6 channels
Channel positions: Front: L C R, Side: L R, LFE
Sampling rate: 48.0 KHz
Bit depth: 16 bits
Stream size: 303 MiB (23%)
Alignment: Aligned on interleaves
Interleave, duration: 42 ms (1.00 video frame)


:: SYSPNOSIS ::


Martin was a normal teenage boy before the country collapsed in an empty pit of economic and political disaster A vampire epidemic has swept across what is left of the nation's abandoned towns and cities, and it's up to Mistera death dealing, rogue vampire hunter, to get Martin safely north to Canada, the continent's New Eden.


:: More Information ::

 
http://leetleech.org/images/90967736935585876844.png


:: Screens ::

 
http://leetleech.org/images/07639265066968588580.png
 
http://leetleech.org/images/58220970972462560250.png
 
http://leetleech.org/images/27358378924942718989.png


ENJOY!